<svg width="109" height="85" viewBox="0 0 109 85" fill="none" xmlns="http://www.w3.org/2000/svg">
<path d="M87.506 61.6291H21.0368C17.4771 61.6291 14.5923 58.7443 14.5923 55.1847V29.4911C14.5923 25.9315 17.4771 23.0466 21.0368 23.0466H87.506C91.0656 23.0466 93.9505 25.9315 93.9505 29.4911V55.1847C93.9505 58.7443 91.0656 61.6291 87.506 61.6291Z" fill="#00A197"/>
<path fill-rule="evenodd" clip-rule="evenodd" d="M22.8992 30.554H35.9916L35.0328 54.2399H21.9404L22.8992 30.554ZM24.0333 31.7349L23.1701 53.059H33.8987L34.7619 31.7349H24.0333Z" fill="white"/>
<path fill-rule="evenodd" clip-rule="evenodd" d="M34.4657 42.9874H22.5552V41.8065H34.4657V42.9874Z" fill="white"/>
<path fill-rule="evenodd" clip-rule="evenodd" d="M40.0058 30.554H53.0982L52.1394 54.2399H39.047L40.0058 30.554ZM41.1399 31.7349L40.2767 53.059H51.0053L51.8685 31.7349H41.1399Z" fill="white"/>
<path fill-rule="evenodd" clip-rule="evenodd" d="M51.5721 42.9874H39.6616V41.8065H51.5721V42.9874Z" fill="white"/>
<path fill-rule="evenodd" clip-rule="evenodd" d="M57.1122 30.554H70.2046L69.2458 54.2399H56.1534L57.1122 30.554ZM58.2463 31.7349L57.3831 53.059H68.1117L68.9749 31.7349H58.2463Z" fill="white"/>
<path fill-rule="evenodd" clip-rule="evenodd" d="M68.6788 42.9874H56.7683V41.8065H68.6788V42.9874Z" fill="white"/>
<path fill-rule="evenodd" clip-rule="evenodd" d="M74.2361 30.554H87.3112L86.3523 54.2399H73.2595L74.2361 30.554ZM75.3693 31.7349L74.4901 53.059H85.2183L86.0815 31.7349H75.3693Z" fill="white"/>
<path fill-rule="evenodd" clip-rule="evenodd" d="M85.7852 42.9874H73.8748V41.8065H85.7852V42.9874Z" fill="white"/>
<path d="M103.499 22.3886L100.513 22.6585L97.5271 22.9285L99.7202 20.8703L101.913 18.829L103.499 22.3886Z" fill="#00A197"/>
<path fill-rule="evenodd" clip-rule="evenodd" d="M107.702 18.7661L98.5754 22.8318L98.3008 22.2154L107.428 18.1497L107.702 18.7661Z" fill="#00A197"/>
<path fill-rule="evenodd" clip-rule="evenodd" d="M0.423522 18.116L9.55039 22.1817L9.27579 22.7981L0.148926 18.7324L0.423522 18.116Z" fill="#00A197"/>
<path d="M6.02222 18.7784L8.23223 20.8198L10.4254 22.8611L7.43932 22.608L4.4364 22.3381L5.41488 20.6342L6.02222 18.7784Z" fill="#00A197"/>
<path d="M102.268 65.7283L100.074 63.6701L97.8813 61.6288L100.867 61.8987L103.853 62.1518L102.268 65.7283Z" fill="#00A197"/>
<path fill-rule="evenodd" clip-rule="evenodd" d="M107.782 66.408L98.6552 62.3422L98.9297 61.7258L108.057 65.7916L107.782 66.408Z" fill="#00A197"/>
<path d="M4.73999 62.169L7.72604 61.9159L10.7121 61.646L8.51895 63.6873L6.3258 65.7455L4.73999 62.169Z" fill="#00A197"/>
<path fill-rule="evenodd" clip-rule="evenodd" d="M0.503296 65.8253L9.63016 61.7595L9.90476 62.3759L0.777893 66.4417L0.503296 65.8253Z" fill="#00A197"/>
<path d="M56.2286 5.87244L55.2501 8.70666L54.2716 11.5409L53.2932 8.70666L52.3315 5.87244L54.2716 6.05801L56.2286 5.87244Z" fill="#00A197"/>
<path fill-rule="evenodd" clip-rule="evenodd" d="M54.6094 0.55835V10.5456H53.9342V0.55835H54.6094Z" fill="#00A197"/>
<path d="M52.3315 79.4609L53.2932 76.6099L54.2716 73.7756L55.2501 76.6099L56.2286 79.4609H52.3315Z" fill="#00A197"/>
<path fill-rule="evenodd" clip-rule="evenodd" d="M53.9342 84.7583V74.771H54.6094V84.7583H53.9342Z" fill="#00A197"/>
</svg>
