<svg width="25" height="25" viewBox="0 0 25 25" fill="none" xmlns="http://www.w3.org/2000/svg">
<path d="M12.4408 24.1514C5.82374 24.1514 0.440796 18.7684 0.440796 12.1514C0.440796 5.53431 5.82374 0.151367 12.4408 0.151367C19.0579 0.151367 24.4408 5.53431 24.4408 12.1514C24.4408 18.7684 19.0579 24.1514 12.4408 24.1514ZM12.4408 0.965976C6.2734 0.965976 1.2554 5.98397 1.2554 12.1514C1.2554 18.3188 6.2734 23.3368 12.4408 23.3368C18.6082 23.3368 23.6262 18.3188 23.6262 12.1514C23.6262 5.98397 18.6082 0.965976 12.4408 0.965976Z" fill="white"/>
<path d="M19.7406 9.74985C19.6493 8.86926 19.453 7.8958 18.7305 7.38423C18.1708 6.98751 17.4352 6.97285 16.7485 6.97366C15.2969 6.97447 13.8444 6.97611 12.3928 6.97692C10.9966 6.97855 9.60032 6.97937 8.20408 6.981C7.62082 6.98181 7.05385 6.93618 6.51214 7.18871C6.047 7.40539 5.68287 7.81759 5.46374 8.27622C5.15989 8.91406 5.09635 9.63663 5.05969 10.3421C4.99208 11.6267 4.99941 12.9146 5.08006 14.1984C5.13952 15.1352 5.29023 16.1706 6.01441 16.7677C6.65632 17.2964 7.56217 17.3225 8.3947 17.3233C11.0373 17.3257 13.6807 17.3281 16.3241 17.3298C16.663 17.3306 17.0165 17.3241 17.3619 17.2866C18.0413 17.2133 18.6889 17.0186 19.1255 16.5152C19.5662 16.0077 19.6795 15.3014 19.7463 14.6326C19.9092 13.0099 19.9076 11.3717 19.7406 9.74985ZM10.8646 14.4265V9.87692L14.8041 12.1513L10.8646 14.4265Z" fill="white"/>
</svg>
