<svg width="25" height="24" viewBox="0 0 25 24" fill="none" xmlns="http://www.w3.org/2000/svg">
<circle cx="12.8973" cy="12.0063" r="11.5" stroke="#919191"/>
<path fill-rule="evenodd" clip-rule="evenodd" d="M19.2532 8.0625L12.868 12.8132C11.1644 11.5474 9.53188 10.3292 8.23158 9.34416C7.5729 8.84519 7.00609 8.41098 6.56009 8.0625H19.2532ZM19.8814 8.8415L16.1521 11.6162L19.8814 15.3261V8.8415ZM19.0911 15.9504L15.3409 12.2198L13.1667 13.8374L12.8686 14.0592L12.5702 13.8376C11.7965 13.263 11.0337 12.6956 10.306 12.1525L6.64788 15.9504H19.0911ZM5.91321 15.2717L9.49876 11.5491C8.82668 11.046 8.19577 10.5716 7.62774 10.1413C6.96395 9.63843 6.37908 9.1907 5.91321 8.82612V15.2717Z" fill="#919191"/>
</svg>
