<svg width="78" height="78" viewBox="0 0 78 78" fill="none" xmlns="http://www.w3.org/2000/svg">
<path d="M57.8246 26.4712C58.9641 35.2764 59.3952 55.308 39.415 55.1319C20.5006 54.9652 19.2891 38.5913 19.9105 26.4712L22.7845 26.2798L27.8626 28.6587L33.7184 26.0968L39.437 28.6129C39.437 28.6129 40.04 28.3213 41.0124 27.9844C42.4564 25.319 47.26 26.1883 51.1944 28.2013C51.6853 28.4525 52.0661 28.648 52.3572 28.7982C54.9485 24.6802 57.8246 26.4712 57.8246 26.4712Z" fill="#00A197"/>
<path d="M58.3458 26.1469C57.82 25.6274 57.1106 25.3362 56.3715 25.3362C55.6324 25.3362 54.923 25.6274 54.3972 26.1469L52.6114 27.9095C52.2882 28.2001 51.907 28.4189 51.4931 28.5515C51.0792 28.6842 50.6419 28.7277 50.2099 28.6792C49.6287 28.5905 49.0902 28.3212 48.6705 27.9095L46.8617 26.193C46.3342 25.6708 45.6219 25.3779 44.8796 25.3779C44.1374 25.3779 43.4251 25.6708 42.8976 26.193L41.1427 27.9865C40.6132 28.505 39.9017 28.7954 39.1606 28.7954C38.4196 28.7954 37.708 28.505 37.1786 27.9865L35.416 26.2161C34.8924 25.6953 34.184 25.403 33.4455 25.403C32.707 25.403 31.9986 25.6953 31.475 26.2161L29.6816 27.9865C29.1509 28.5055 28.438 28.7961 27.6957 28.7961C26.9534 28.7961 26.2406 28.5055 25.7098 27.9865L23.9549 26.2392C23.4287 25.7175 22.7177 25.4247 21.9767 25.4247C21.2357 25.4247 20.5247 25.7175 19.9985 26.2392" stroke="#00A197" stroke-width="2" stroke-miterlimit="10"/>
<path d="M41.3895 69.3128H40.4043L40.489 54.1571H40.9739C45.4888 54.0782 49.7911 52.225 52.9501 48.9983C56.109 45.7716 57.8706 41.431 57.8538 36.9154V8.30505H58.839V36.9154C58.8436 41.5976 57.04 46.1008 53.8046 49.4853C50.5692 52.8699 46.1519 54.8744 41.4742 55.0807L41.3895 69.3128Z" fill="#00A197" stroke="#00A197" stroke-width="0.5" stroke-miterlimit="10"/>
<path d="M36.9407 69.2203H37.9259L37.8413 54.0338H37.3563C32.8468 53.955 28.5491 52.106 25.391 48.8859C22.2329 45.6659 20.4677 41.3331 20.4765 36.8229V8.21252H19.4912V36.8229C19.4867 41.5051 21.2902 46.0082 24.5256 49.3928C27.761 52.7773 32.1784 54.7819 36.856 54.9882L36.9407 69.2203Z" fill="#00A197" stroke="#00A197" stroke-width="0.5" stroke-miterlimit="10"/>
<path d="M20.3219 11.8071L31.7676 11.8071V10.9758L20.3219 10.9758V11.8071Z" fill="#00A197" stroke="#00A197" stroke-width="0.5" stroke-miterlimit="10"/>
<path d="M20.0603 18.4268H31.506V17.5955H20.0603V18.4268Z" fill="#00A197" stroke="#00A197" stroke-width="0.5" stroke-miterlimit="10"/>
<path d="M20.3219 25.2697H31.7676V24.4384H20.3219V25.2697Z" fill="#00A197" stroke="#00A197" stroke-width="0.5" stroke-miterlimit="10"/>
<path d="M20.3219 32.4049H31.7676V31.5736H20.3219V32.4049Z" fill="#00A197" stroke="#00A197" stroke-width="0.5" stroke-miterlimit="10"/>
<path d="M20.0603 39.0858H31.506V38.2545H20.0603V39.0858Z" fill="#00A197" stroke="#00A197" stroke-width="0.5" stroke-miterlimit="10"/>
<path d="M22.3847 46.5597H31.7676V45.7284H22.3847V46.5597Z" fill="#00A197" stroke="#00A197" stroke-width="0.5" stroke-miterlimit="10"/>
</svg>
