<svg width="49" height="56" viewBox="0 0 49 56" fill="none" xmlns="http://www.w3.org/2000/svg">
<path d="M31.559 7.3121V9.23096H22.5324V7.3121H31.559ZM27.7498 12.376H22.5234V14.2363H27.7498V12.376ZM22.5234 19.3404H31.5499V17.5121H22.5234V19.3404ZM27.7498 22.558H22.5234V24.4774H27.7498V22.558ZM22.5234 29.3839H31.5499V27.6309H22.5234V29.3839ZM23.9225 43.2649C23.9225 46.4034 22.6757 49.4134 20.4565 51.6326C18.2372 53.8519 15.2272 55.0987 12.0887 55.0987C8.95017 55.0987 5.9402 53.8519 3.72092 51.6326C1.50165 49.4134 0.254881 46.4034 0.254881 43.2649C0.245521 41.2013 0.7805 39.1718 1.80586 37.381C2.83122 35.5901 4.31069 34.1014 6.09506 33.0649V6.30113C6.09506 4.71152 6.72653 3.18701 7.85056 2.06299C8.97458 0.938965 10.4991 0.307495 12.0887 0.307495C13.6783 0.307495 15.2028 0.938965 16.3268 2.06299C17.4509 3.18701 18.0823 4.71152 18.0823 6.30113V33.0829C19.8581 34.1291 21.3306 35.62 22.3547 37.4086C23.3788 39.1973 23.9192 41.2038 23.9225 43.2649ZM21.5937 43.2649C21.5891 41.5063 21.0986 39.7832 20.1763 38.2858C19.254 36.7885 17.9358 35.5752 16.3673 34.7799L15.7535 34.473V6.30113C15.7535 5.32917 15.3674 4.39702 14.6801 3.70974C13.9928 3.02246 13.0607 2.63635 12.0887 2.63635C11.1167 2.63635 10.1846 3.02246 9.4973 3.70974C8.81002 4.39702 8.42391 5.32917 8.42391 6.30113V34.4911L7.81011 34.798C6.29566 35.5554 5.01104 36.7036 4.08909 38.1238C3.16714 39.5441 2.64134 41.1849 2.56606 42.8765C2.49079 44.5681 2.86877 46.2491 3.66092 47.7457C4.45307 49.2422 5.63063 50.5 7.07181 51.3889C8.513 52.2779 10.1655 52.7656 11.8584 52.8019C13.5513 52.8381 15.2231 52.4214 16.701 51.5949C18.1788 50.7684 19.4091 49.5621 20.2645 48.1008C21.1199 46.6395 21.5965 44.9581 21.5937 43.2649ZM19.6439 43.2649C19.6585 44.6785 19.2762 46.0679 18.5404 47.275C17.8046 48.4821 16.745 49.4586 15.4818 50.0935C14.2187 50.7283 12.8027 50.996 11.395 50.8661C9.98729 50.7362 8.64425 50.214 7.51857 49.3588C6.39289 48.5036 5.52974 47.3497 5.02725 46.0283C4.52476 44.7069 4.40308 43.2711 4.67606 41.884C4.94903 40.4969 5.60571 39.2142 6.57143 38.1817C7.53715 37.1493 8.77316 36.4085 10.139 36.0436L10.6083 35.9624V21.4748H13.6413V35.9173L14.1106 35.9895C15.6928 36.4517 17.0845 37.41 18.0807 38.7232C19.077 40.0363 19.6249 41.6167 19.6439 43.2649ZM12.4859 38.201C12.3911 37.8127 12.1511 37.4756 11.8152 37.259C11.4794 37.0424 11.0733 36.9628 10.6806 37.0365C9.2937 37.3346 8.05429 38.1071 7.17601 39.221C6.29774 40.3349 5.83564 41.7204 5.8694 43.1385C5.86821 43.3325 5.90539 43.5248 5.9788 43.7043C6.0522 43.8839 6.16039 44.0471 6.29714 44.1847C6.43388 44.3223 6.59648 44.4315 6.77558 44.506C6.95468 44.5805 7.14675 44.6189 7.34073 44.6189C7.72975 44.6075 8.09973 44.4479 8.37493 44.1727C8.65012 43.8975 8.80973 43.5275 8.82108 43.1385C8.83331 42.4156 9.08561 41.7173 9.53827 41.1535C9.99093 40.5897 10.6182 40.1925 11.3214 40.0243C11.5202 39.9896 11.7096 39.9141 11.8778 39.8026C12.046 39.6911 12.1893 39.546 12.2987 39.3765C12.408 39.2069 12.4811 39.0165 12.5133 38.8173C12.5456 38.6181 12.5362 38.4144 12.4859 38.219V38.201Z" fill="#00A197"/>
<path d="M32.0221 37.9261C32.6962 37.9355 33.3525 38.1441 33.9085 38.5255C34.4645 38.9069 34.8953 39.4441 35.1467 40.0697C35.3982 40.6952 35.4591 41.3811 35.3219 42.0412C35.1846 42.7013 34.8552 43.3061 34.3752 43.7795C33.8951 44.2529 33.2859 44.5738 32.6239 44.7019C31.962 44.83 31.277 44.7596 30.655 44.4995C30.033 44.2393 29.5018 43.8011 29.1281 43.2399C28.7545 42.6787 28.5551 42.0195 28.5551 41.3453C28.555 40.8923 28.645 40.4437 28.8198 40.0257C28.9946 39.6077 29.2508 39.2287 29.5734 38.9105C29.896 38.5924 30.2785 38.3415 30.6989 38.1725C31.1193 38.0035 31.5691 37.9198 32.0221 37.9261ZM32.0221 43.0908C32.3673 43.0908 32.7048 42.9884 32.9918 42.7966C33.2789 42.6049 33.5026 42.3322 33.6347 42.0133C33.7668 41.6944 33.8014 41.3434 33.734 41.0048C33.6667 40.6662 33.5004 40.3552 33.2563 40.1111C33.0122 39.867 32.7012 39.7007 32.3626 39.6334C32.024 39.5661 31.6731 39.6006 31.3541 39.7327C31.0352 39.8648 30.7626 40.0886 30.5708 40.3756C30.379 40.6626 30.2766 41.0001 30.2766 41.3453C30.2798 41.8073 30.4647 42.2494 30.7913 42.5761C31.118 42.9028 31.5601 43.0877 32.0221 43.0908Z" fill="#00A197"/>
<path d="M48.4133 54.4959C47.2692 54.931 46.05 55.1342 44.8267 55.0936C39.7576 55.0936 37.1514 51.3875 37.1514 46.5097C37.1514 41.6319 39.7576 37.9258 44.731 37.9258C45.9979 37.9334 47.2532 38.1683 48.4372 38.6192L48.2698 41.3689C47.3157 40.7944 46.2272 40.4811 45.1136 40.4603C42.5791 40.4603 40.4032 42.1819 40.4032 46.5097C40.4032 50.8375 42.5791 52.5591 45.1136 52.5591C46.231 52.62 47.3381 52.3181 48.2698 51.6983L48.4133 54.4959Z" fill="#00A197"/>
</svg>
