<svg width="56" height="56" viewBox="0 0 56 56" fill="none" xmlns="http://www.w3.org/2000/svg">
<rect x="1.25894" y="1.07327" width="53.2597" height="53.2597" rx="2.15" stroke="#00A197" stroke-width="1.7"/>
<path fill-rule="evenodd" clip-rule="evenodd" d="M36.7885 41.3124H53.3753C53.486 41.3124 53.5756 41.4022 53.5753 41.5129L53.5481 53.4107C53.5478 53.5211 53.4582 53.6104 53.3478 53.6103L2.26261 53.5458C2.15184 53.5456 2.06227 53.4555 2.06287 53.3447L2.12569 41.6515C2.12628 41.5421 2.21466 41.4534 2.32407 41.4526L19.4264 41.3138C19.5235 41.313 19.6062 41.2455 19.6285 41.151C19.838 40.2635 21.1344 36.005 26.7828 35.6315C27.2681 35.5994 27.7856 35.596 28.3374 35.6259C35.218 35.9986 36.4034 40.2211 36.5801 41.1376C36.5995 41.2382 36.6861 41.3124 36.7885 41.3124ZM28.0591 49.8438C30.6604 49.8438 32.7691 47.735 32.7691 45.1338C32.7691 42.5325 30.6604 40.4237 28.0591 40.4237C25.4578 40.4237 23.3491 42.5325 23.3491 45.1338C23.3491 47.735 25.4578 49.8438 28.0591 49.8438Z" fill="#00A197"/>
<path d="M53.5753 41.5129L54.4253 41.5148V41.5148L53.5753 41.5129ZM53.5481 53.4107L54.3981 53.4127V53.4127L53.5481 53.4107ZM53.3478 53.6103L53.3467 54.4603H53.3468L53.3478 53.6103ZM2.26261 53.5458L2.26369 52.6958H2.26367L2.26261 53.5458ZM2.06287 53.3447L2.91286 53.3493L2.06287 53.3447ZM2.12569 41.6515L1.2757 41.6469L2.12569 41.6515ZM2.32407 41.4526L2.31717 40.6026H2.31716L2.32407 41.4526ZM19.4264 41.3138L19.4195 40.4638H19.4195L19.4264 41.3138ZM19.6285 41.151L20.4558 41.3463V41.3463L19.6285 41.151ZM26.7828 35.6315L26.8389 36.4797L26.7828 35.6315ZM28.3374 35.6259L28.2914 36.4746H28.2914L28.3374 35.6259ZM36.5801 41.1376L37.4147 40.9767V40.9767L36.5801 41.1376ZM6.98678 17.8868L7.62749 17.3282H7.62749L6.98678 17.8868ZM6.98694 17.6253L6.35081 17.0615V17.0615L6.98694 17.6253ZM27.9665 10.122L27.9713 9.27197L27.9665 10.122ZM39.2869 11.9006L39.551 11.0926V11.0926L39.2869 11.9006ZM49.3126 17.6029L49.8898 16.979L49.8898 16.979L49.3126 17.6029ZM49.3051 17.9003L49.8536 18.5496L49.8536 18.5496L49.3051 17.9003ZM53.3753 40.4624H36.7885V42.1624H53.3753V40.4624ZM54.4253 41.5148C54.4267 40.934 53.9562 40.4624 53.3753 40.4624V42.1624C53.0158 42.1624 52.7245 41.8705 52.7253 41.511L54.4253 41.5148ZM54.3981 53.4127L54.4253 41.5148L52.7253 41.5109L52.6981 53.4088L54.3981 53.4127ZM53.3468 54.4603C53.9262 54.461 54.3967 53.9922 54.3981 53.4127L52.6981 53.4088C52.6989 53.0501 52.9902 52.7598 53.3489 52.7603L53.3468 54.4603ZM2.26154 54.3958L53.3467 54.4603L53.3489 52.7603L2.26369 52.6958L2.26154 54.3958ZM1.21288 53.3401C1.20976 53.9217 1.67995 54.3951 2.26156 54.3958L2.26367 52.6958C2.62372 52.6962 2.91479 52.9893 2.91286 53.3493L1.21288 53.3401ZM1.2757 41.6469L1.21288 53.3401L2.91286 53.3493L2.97568 41.656L1.2757 41.6469ZM2.31716 40.6026C1.74282 40.6073 1.27879 41.0725 1.2757 41.6469L2.97568 41.656C2.97377 42.0116 2.68651 42.2996 2.33097 42.3025L2.31716 40.6026ZM19.4195 40.4638L2.31717 40.6026L2.33096 42.3025L19.4333 42.1638L19.4195 40.4638ZM18.8013 40.9557C18.8667 40.6783 19.1156 40.4663 19.4195 40.4638L19.4333 42.1638C19.9315 42.1597 20.3457 41.8127 20.4558 41.3463L18.8013 40.9557ZM26.7267 34.7834C23.6673 34.9856 21.7225 36.2548 20.523 37.6427C19.344 39.0068 18.9233 40.4387 18.8013 40.9557L20.4558 41.3463C20.5433 40.9757 20.8755 39.8346 21.8092 38.7543C22.7224 37.6977 24.2499 36.6508 26.8389 36.4797L26.7267 34.7834ZM28.3833 34.7771C27.7995 34.7455 27.2478 34.7489 26.7267 34.7834L26.8389 36.4797C27.2885 36.4499 27.7718 36.4465 28.2914 36.4746L28.3833 34.7771ZM37.4147 40.9767C37.3071 40.4187 36.9142 38.9606 35.5833 37.5865C34.2364 36.1958 32.0081 34.9735 28.3833 34.7771L28.2914 36.4746C31.5473 36.651 33.352 37.7263 34.3621 38.7692C35.3883 39.8286 35.6763 40.94 35.7455 41.2985L37.4147 40.9767ZM36.7885 40.4624C37.1095 40.4624 37.3601 40.6932 37.4147 40.9767L35.7455 41.2985C35.8389 41.7832 36.2626 42.1624 36.7885 42.1624V40.4624ZM31.9191 45.1338C31.9191 47.2656 30.1909 48.9938 28.0591 48.9938V50.6938C31.1298 50.6938 33.6191 48.2045 33.6191 45.1338H31.9191ZM28.0591 41.2737C30.1909 41.2737 31.9191 43.0019 31.9191 45.1338H33.6191C33.6191 42.063 31.1298 39.5737 28.0591 39.5737V41.2737ZM24.1991 45.1338C24.1991 43.0019 25.9272 41.2737 28.0591 41.2737V39.5737C24.9884 39.5737 22.4991 42.063 22.4991 45.1338H24.1991ZM28.0591 48.9938C25.9272 48.9938 24.1991 47.2656 24.1991 45.1338H22.4991C22.4991 48.2045 24.9884 50.6938 28.0591 50.6938V48.9938ZM20.2175 22.0425L25.9978 35.9576L27.5678 35.3054L21.7874 21.3904L20.2175 22.0425ZM6.34608 18.4453L9.87143 22.4891L11.1528 21.372L7.62749 17.3282L6.34608 18.4453ZM7.62306 18.1891C9.8328 15.6958 13.1589 13.7674 17.1027 12.5317L16.5943 10.9094C12.4516 12.2076 8.82324 14.2718 6.35081 17.0615L7.62306 18.1891ZM19.8714 17.3498L17.6442 11.4216L16.0528 12.0195L18.28 17.9477L19.8714 17.3498ZM17.1027 12.5317C20.4288 11.4894 24.1615 10.9506 27.9617 10.9719L27.9713 9.27197C24.01 9.24976 20.1013 9.81054 16.5943 10.9094L17.1027 12.5317ZM28.8161 16.0242L28.8165 10.122L27.1165 10.1219L27.1161 16.024L28.8161 16.0242ZM27.9617 10.9719C31.7068 10.993 35.5019 11.5579 39.0229 12.7085L39.551 11.0926C35.8475 9.88232 31.876 9.29387 27.9713 9.27197L27.9617 10.9719ZM39.0229 12.7085C42.6876 13.9062 46.04 15.7331 48.7353 18.2269L49.8898 16.979C46.9836 14.2902 43.4047 12.3521 39.551 11.0926L39.0229 12.7085ZM37.3748 17.7425L40.0504 12.2742L38.5234 11.527L35.8478 16.9953L37.3748 17.7425ZM45.1006 22.565L49.8536 18.5496L48.7566 17.251L44.0036 21.2663L45.1006 22.565ZM48.7353 18.2269C48.4438 17.9571 48.4621 17.4998 48.7566 17.251L49.8536 18.5496C50.3305 18.1468 50.3566 17.4109 49.8898 16.979L48.7353 18.2269ZM7.62749 17.3282C7.83795 17.5696 7.84527 17.9384 7.62306 18.1891L6.35081 17.0615C5.99644 17.4614 6.00467 18.0537 6.34608 18.4453L7.62749 17.3282Z" fill="#00A197"/>
</svg>
