<svg width="160" height="40" viewBox="0 0 160 40" fill="none" xmlns="http://www.w3.org/2000/svg">
<path d="M70.8143 14.2583L61.1955 0.579346H51.9084V8.00989H58.3763L66.8341 20.0001L58.3763 31.8214H51.9084V39.2519H61.1955L70.8143 25.573L74.7945 20.0001L70.8143 14.2583Z" fill="#00A197"/>
<path d="M80.2729 0.575439L74.966 8.00598L72.3125 12.2279L76.2927 17.9697L83.4239 8.00598H89.3941L89.56 0.575439" fill="#FF007D"/>
<path d="M20.5643 10.542C19.5693 9.19103 18.2425 8.17777 16.75 7.50227C15.0915 6.82676 13.2673 6.48901 10.9455 6.48901C9.45294 6.48901 8.12621 6.65789 6.63364 6.99564C5.14107 7.33339 3.48266 7.84002 1.99009 8.51552V13.0752C3.48266 12.2308 4.97523 11.5553 6.4678 11.2175C7.96037 10.7109 9.61878 10.542 11.1114 10.542C13.4331 10.542 15.2574 11.0487 16.2524 12.0619C17.2475 13.0752 17.9108 14.5951 17.9108 16.7904V17.4659H11.9406C7.96037 17.4659 5.14107 18.3103 2.98514 19.8302C0.995047 21.3501 0 23.7144 0 26.7541C0 29.4561 0.829206 31.4827 2.48762 33.1714C4.14603 34.6913 6.30196 35.5357 9.12126 35.5357C11.1114 35.5357 12.9356 35.1979 14.4282 34.3535C15.9207 33.5092 17.0816 32.327 18.0767 30.8071V35.7046H22.5544V19.1547C22.5544 16.7904 22.3886 14.9328 22.2227 13.7507C21.5593 12.3997 21.2277 11.3864 20.5643 10.542ZM17.745 21.8567C17.745 24.8965 17.0816 27.2608 15.5891 28.9495C14.2623 30.6383 12.2722 31.4827 9.78463 31.4827C8.12621 31.4827 6.63364 30.976 5.6386 30.1316C4.64355 29.2873 4.14603 27.9363 4.14603 26.2475C4.14603 24.3899 4.80939 23.0389 6.13612 22.0256C7.46285 21.1812 9.45294 20.6746 11.9406 20.6746H13.599H17.745V21.8567Z" fill="#000912"/>
<path d="M20.5643 10.542C19.5693 9.19103 18.2425 8.17777 16.75 7.50227C15.0915 6.82676 13.2673 6.48901 10.9455 6.48901C9.45294 6.48901 8.12621 6.65789 6.63364 6.99564C5.14107 7.33339 3.48266 7.84002 1.99009 8.51552V13.0752C3.48266 12.2308 4.97523 11.5553 6.4678 11.2175C7.96037 10.7109 9.61878 10.542 11.1114 10.542C13.4331 10.542 15.2574 11.0487 16.2524 12.0619C17.2475 13.0752 17.9108 14.5951 17.9108 16.7904V17.4659H11.9406C7.96037 17.4659 5.14107 18.3103 2.98514 19.8302C0.995047 21.3501 0 23.7144 0 26.7541C0 29.4561 0.829206 31.4827 2.48762 33.1714C4.14603 34.6913 6.30196 35.5357 9.12126 35.5357C11.1114 35.5357 12.9356 35.1979 14.4282 34.3535C15.9207 33.5092 17.0816 32.327 18.0767 30.8071V35.7046H22.5544V19.1547C22.5544 16.7904 22.3886 14.9328 22.2227 13.7507C21.5593 12.3997 21.2277 11.3864 20.5643 10.542ZM17.745 21.8567C17.745 24.8965 17.0816 27.2608 15.5891 28.9495C14.2623 30.6383 12.2722 31.4827 9.78463 31.4827C8.12621 31.4827 6.63364 30.976 5.6386 30.1316C4.64355 29.2873 4.14603 27.9363 4.14603 26.2475C4.14603 24.3899 4.80939 23.0389 6.13612 22.0256C7.46285 21.1812 9.45294 20.6746 11.9406 20.6746H13.599H17.745V21.8567Z" fill="#000912"/>
<path d="M47.7654 8.00745H42.4585L30.6838 19.491V0.576904H26.2061V35.5342H30.6838V24.5573L34.0006 21.5175L43.9511 35.5342H49.4238L37.1516 18.4778L47.7654 8.00745Z" fill="#000912"/>
<path d="M103.487 30.8057C102.658 29.9613 102.327 28.6103 102.327 26.5838V11.5538H112.443V8.00745H102.327V0.576904H97.8489V8.00745H90.5519V11.5538H97.8489V26.5838C97.8489 29.9613 98.5122 32.3256 99.839 33.6766C101.166 35.0276 103.487 35.7031 106.97 35.7031H112.443V32.1567H107.468C105.478 31.9878 104.151 31.4812 103.487 30.8057Z" fill="#000912"/>
<path d="M124.714 6.48901C120.9 6.48901 117.749 7.84002 115.427 10.3732C113.106 13.0752 111.945 16.4527 111.945 20.8435C111.945 25.4031 113.106 28.9495 115.427 31.4827C117.749 34.0158 121.066 35.3668 125.212 35.3668C126.705 35.3668 128.197 35.1979 129.69 34.8602C131.182 34.5224 132.841 34.0158 134.499 33.3403V28.7806C132.675 29.7939 131.016 30.4694 129.524 30.8072C128.031 31.3138 126.539 31.4827 125.046 31.4827C122.227 31.4827 120.071 30.6383 118.578 28.9495C117.086 27.2608 116.257 24.5587 116.422 20.8435V20.6746H135.66V18.6481C135.494 15.2706 134.499 12.3997 132.509 10.0354C130.851 7.67114 128.031 6.48901 124.714 6.48901ZM116.92 17.2971C117.086 15.4394 117.749 13.9196 119.242 12.3997C120.568 10.8798 122.393 10.2043 124.549 10.2043C126.705 10.2043 128.363 10.8798 129.524 12.2308C130.685 13.5818 131.348 15.2706 131.514 17.1282L116.92 17.2971Z" fill="#000912"/>
<path d="M151.578 10.373C153.071 10.373 154.398 10.5419 155.558 11.0485C156.719 11.5551 157.88 12.2306 159.041 13.4128V8.68423C157.714 8.00872 156.554 7.5021 155.227 7.16434C154.066 6.82659 152.739 6.65771 151.412 6.65771C147.266 6.65771 143.95 8.00872 141.628 10.5419C139.306 13.075 138.145 16.6214 138.145 21.181C138.145 25.7407 139.306 29.2871 141.628 31.8202C143.95 34.3534 147.266 35.7044 151.412 35.7044C152.739 35.7044 154.066 35.5355 155.227 35.1978C156.554 34.86 157.714 34.3534 158.875 33.6779V28.7805C157.88 29.7937 156.719 30.4692 155.393 30.9759C154.232 31.4825 152.739 31.6514 151.247 31.6514C148.427 31.6514 146.271 30.807 144.779 28.9493C143.618 27.0917 142.955 24.3897 142.955 21.0122C142.955 17.6347 143.784 14.9326 145.276 13.075C146.603 11.3862 148.759 10.373 151.578 10.373Z" fill="#000912"/>
</svg>
