<svg width="102" height="50" viewBox="0 0 102 50" fill="none" xmlns="http://www.w3.org/2000/svg">
<path d="M93.7066 49.7182H7.83807C3.82143 49.7182 0.574829 46.4716 0.574829 42.455V8.15753C0.574829 4.14089 3.82143 0.894287 7.83807 0.894287H93.7066C97.7233 0.894287 100.97 4.14089 100.97 8.15753V42.4342C100.97 46.4508 97.7233 49.7182 93.7066 49.7182Z" fill="#00A197"/>
<path fill-rule="evenodd" clip-rule="evenodd" d="M7.838 0.998521C3.87884 0.998521 0.678819 4.19854 0.678819 8.1577V42.4552C0.678819 46.4143 3.87884 49.6144 7.838 49.6144H93.7066C97.6654 49.6144 100.866 46.3939 100.866 42.4344V8.1577C100.866 4.19854 97.6657 0.998521 93.7066 0.998521H7.838ZM0.470703 8.1577C0.470703 4.0836 3.7639 0.790405 7.838 0.790405H93.7066C97.7807 0.790405 101.074 4.0836 101.074 8.1577V42.4344C101.074 46.5081 97.7811 49.8225 93.7066 49.8225H7.838C3.7639 49.8225 0.470703 46.5293 0.470703 42.4552V8.1577Z" fill="#00A197"/>
<path fill-rule="evenodd" clip-rule="evenodd" d="M6.46443 6.38269V42.9962H96.3139L92.773 46.5371L92.1844 45.9485L94.3042 43.8286H5.63196V8.39243L4.05324 9.97116L3.4646 9.38252L6.46443 6.38269Z" fill="white"/>
<path fill-rule="evenodd" clip-rule="evenodd" d="M9.84373 17.71H6.04822V16.8776H9.84373V17.71ZM25.0258 17.71H17.4348V16.8776H25.0258V17.71ZM40.2078 17.71H32.6168V16.8776H40.2078V17.71ZM55.3899 17.71H47.7988V16.8776H55.3899V17.71ZM70.5719 17.71H62.9809V16.8776H70.5719V17.71ZM85.754 17.71H78.1629V16.8776H85.754V17.71ZM97.1405 17.71H93.345V16.8776H97.1405V17.71Z" fill="white"/>
<path fill-rule="evenodd" clip-rule="evenodd" d="M9.84373 37.5645H6.04822V36.7321H9.84373V37.5645ZM25.0258 37.5645H17.4348V36.7321H25.0258V37.5645ZM40.2078 37.5645H32.6168V36.7321H40.2078V37.5645ZM55.3899 37.5645H47.7988V36.7321H55.3899V37.5645ZM70.5719 37.5645H62.9809V36.7321H70.5719V37.5645ZM85.754 37.5645H78.1629V36.7321H85.754V37.5645ZM97.1405 37.5645H93.345V36.7321H97.1405V37.5645Z" fill="white"/>
<path opacity="0.5" d="M95.3091 17.2939H6.04822V37.1482H95.3091V17.2939Z" fill="white"/>
<path d="M6.51587 43.0371C12.4687 30.9263 26.3376 6.82189 34.1906 7.29068C44.0069 7.87666 44.7165 26.9805 54.0597 29.3245C63.4029 31.6686 74.1678 12.619 80.9066 9.63473C86.3276 7.23402 89.3036 8.81432 95.6901 21.5893" stroke="white" stroke-width="0.5"/>
</svg>
