<svg width="121" height="75" viewBox="0 0 121 75" fill="none" xmlns="http://www.w3.org/2000/svg">
<path fill-rule="evenodd" clip-rule="evenodd" d="M90.0379 0.920654V18.6293H89.186V0.920654H90.0379Z" fill="#00A197"/>
<path fill-rule="evenodd" clip-rule="evenodd" d="M120.836 32.592H103.128V31.7406H120.836V32.592Z" fill="#00A197"/>
<path fill-rule="evenodd" clip-rule="evenodd" d="M110.58 11.8002L99.1288 23.2299L98.5273 22.6274L109.978 11.1976L110.58 11.8002Z" fill="#00A197"/>
<path fill-rule="evenodd" clip-rule="evenodd" d="M111.404 54.5602L98.8888 42.045L99.4908 41.443L112.006 53.9582L111.404 54.5602Z" fill="#00A197"/>
<path fill-rule="evenodd" clip-rule="evenodd" d="M67.7556 9.81409L80.2708 22.308L79.6693 22.9106L67.1541 10.4166L67.7556 9.81409Z" fill="#00A197"/>
<path d="M84.8868 74.6925H8.26297C4.15508 74.6925 0.834717 71.3721 0.834717 67.2642V37.615C0.834717 33.5071 4.15508 30.1868 8.26297 30.1868H84.8868C88.9947 30.1868 92.3151 33.5071 92.3151 37.615V67.2429C92.3151 71.3508 88.9947 74.6925 84.8868 74.6925Z" fill="#00A197"/>
<path fill-rule="evenodd" clip-rule="evenodd" d="M10.336 38.7858H25.5556L24.4303 66.2214H9.21069L10.336 38.7858ZM11.7661 40.2757L10.763 64.7315H23.0002L24.0034 40.2757H11.7661Z" fill="white"/>
<path fill-rule="evenodd" clip-rule="evenodd" d="M23.7155 53.259H9.98706V51.769H23.7155V53.259Z" fill="white"/>
<path fill-rule="evenodd" clip-rule="evenodd" d="M30.0667 38.7858H45.2863L44.161 66.2214H28.9414L30.0667 38.7858ZM31.4968 40.2757L30.4937 64.7315H42.731L43.7341 40.2757H31.4968Z" fill="white"/>
<path fill-rule="evenodd" clip-rule="evenodd" d="M43.4462 53.259H29.7178V51.769H43.4462V53.259Z" fill="white"/>
<path fill-rule="evenodd" clip-rule="evenodd" d="M49.7757 38.7858H64.9952L63.8924 66.2214H48.6729L49.7757 38.7858ZM51.2069 40.2757L50.2239 64.7315H62.4612L63.4442 40.2757H51.2069Z" fill="white"/>
<path fill-rule="evenodd" clip-rule="evenodd" d="M63.1766 53.259H49.4481V51.769H63.1766V53.259Z" fill="white"/>
<path fill-rule="evenodd" clip-rule="evenodd" d="M69.5069 38.7858H84.7265L83.6012 66.2214H68.3816L69.5069 38.7858ZM70.937 40.2757L69.9339 64.7315H82.1711L83.1742 40.2757H70.937Z" fill="white"/>
<path fill-rule="evenodd" clip-rule="evenodd" d="M82.886 53.259H69.1576V51.769H82.886V53.259Z" fill="white"/>
</svg>
