<svg width="25" height="25" viewBox="0 0 25 25" fill="none" xmlns="http://www.w3.org/2000/svg">
<path d="M12.558 24.1503C11.9133 24.1503 11.2662 24.0986 10.636 23.9969C7.85308 23.5491 5.30252 22.1185 3.45475 19.969C1.58681 17.796 0.558838 15.0195 0.558838 12.1511C0.558838 5.5346 5.94157 0.151855 12.5588 0.151855C19.1761 0.151855 24.5588 5.5346 24.5588 12.1511C24.5588 15.0639 23.5018 17.8735 21.583 20.061C19.682 22.2283 17.0701 23.6395 14.2299 24.0357C13.6804 24.1123 13.1188 24.1511 12.5596 24.1511L12.558 24.1503ZM12.558 1.11933C6.47492 1.11933 1.52629 6.06796 1.52629 12.1503C1.52629 17.5967 5.42194 22.1766 10.7901 23.0408C11.8722 23.2151 13.0067 23.2272 14.0951 23.0755C19.5077 22.321 23.5898 17.6242 23.5898 12.1503C23.5898 6.06796 18.6411 1.11933 12.558 1.11933Z" fill="white"/>
<path d="M14.1613 9.88148V12.3901H17.2646L16.7732 15.7693H14.1613V23.555C13.6377 23.6276 13.1019 23.6655 12.5581 23.6655C11.9303 23.6655 11.3138 23.6155 10.7135 23.5187V15.7693H7.8515V12.3901H10.7135V9.3207C10.7135 7.41645 12.2571 5.87207 14.1622 5.87207V5.87369C14.1678 5.87369 14.1726 5.87207 14.1783 5.87207H17.2654V8.79461H15.2482C14.6487 8.79461 14.1622 9.28116 14.1622 9.88067L14.1613 9.88148Z" fill="white"/>
</svg>
