<svg width="54" height="61" viewBox="0 0 54 61" fill="none" xmlns="http://www.w3.org/2000/svg">
<rect x="45.5281" y="60.4486" width="17.3222" height="8.00739" transform="rotate(-90 45.5281 60.4486)" fill="#00A197"/>
<rect x="0.464355" y="60.4486" width="17.3222" height="8.00739" transform="rotate(-90 0.464355 60.4486)" fill="#00A197"/>
<path d="M14.8453 5.46606L19.431 11.1467M39.0305 37.4571L34.1441 31.8186" stroke="#00A197" stroke-width="1.6" stroke-linejoin="round"/>
<path d="M38.3315 4.20789L34.2643 10.7991M16.5194 38.6481L20.7702 32.5389" stroke="#00A197" stroke-width="1.6"/>
<path d="M47.2383 21.7083L40.0292 21.7402M6.73524 21.5223L13.3249 21.593" stroke="#00A197" stroke-width="1.6" stroke-linejoin="round"/>
<rect x="1.30957" y="48.1312" width="51.3808" height="8.00739" fill="#00A197"/>
<rect x="22.9962" y="55.6606" width="14.4917" height="8.00739" transform="rotate(-90 22.9962 55.6606)" fill="#00A197"/>
<path d="M27.1309 21.1916L44.7714 13.2476" stroke="#00A197" stroke-width="1.6"/>
<circle cx="27" cy="21.4962" r="19.9212" stroke="#00A197" stroke-width="1.6"/>
<circle cx="27" cy="21.4961" r="3.42387" fill="#00A197"/>
</svg>
