<svg width="21" height="21" viewBox="0 0 21 21" fill="none" xmlns="http://www.w3.org/2000/svg">
<path fill-rule="evenodd" clip-rule="evenodd" d="M12.7246 2.49803L19.8122 16.6733C20.5471 18.1431 19.9513 19.9305 18.4815 20.6654C18.0683 20.872 17.6127 20.9795 17.1508 20.9795H2.97554C1.33219 20.9795 0 19.6473 0 18.004C0 17.542 0.107551 17.0865 0.314136 16.6733L7.40176 2.49803C8.13669 1.02818 9.92402 0.432401 11.3939 1.16733C11.9697 1.45525 12.4366 1.92218 12.7246 2.49803ZM10.0635 14.0609C9.02138 14.0609 8.17659 14.9057 8.17659 15.9478C8.17659 16.9899 9.02138 17.8347 10.0635 17.8347C11.1056 17.8347 11.9504 16.9899 11.9504 15.9478C11.9504 14.9057 11.1056 14.0609 10.0635 14.0609ZM10.0635 12.174C10.7582 12.174 11.3214 11.7717 11.3214 11.2754V6.78281C11.3214 6.28657 10.7582 5.88428 10.0635 5.88428C9.36875 5.88428 8.80556 6.28657 8.80556 6.78281V11.2754C8.80556 11.7717 9.36875 12.174 10.0635 12.174Z" fill="#DF1B41"/>
</svg>
