<svg width="24" height="25" viewBox="0 0 24 25" fill="none" xmlns="http://www.w3.org/2000/svg">
<path d="M12.0262 24.1514H11.9734C5.37118 24.1514 -0.000244141 18.7799 -0.000244141 12.1778V12.125C-0.000244141 5.52278 5.37118 0.151367 11.9734 0.151367H12.0262C18.6283 0.151367 23.9998 5.52278 23.9998 12.125V12.1778C23.9998 18.7799 18.6283 24.1514 12.0262 24.1514ZM11.9734 0.963743C5.8188 0.963743 0.812131 5.9704 0.812131 12.125V12.1778C0.812131 18.3323 5.8188 23.339 11.9734 23.339H12.0262C18.1807 23.339 23.1874 18.3323 23.1874 12.1778V12.125C23.1874 5.9704 18.1807 0.963743 12.0262 0.963743H11.9734Z" fill="white"/>
<path d="M18.7705 7.954C18.4529 8.27489 18.0126 8.47393 17.5243 8.47393C17.4618 8.47393 17.4008 8.47067 17.3399 8.46417C17.8493 8.15872 18.2425 7.68024 18.4382 7.10995C18.4382 7.10995 18.439 7.10995 18.439 7.10914C18.4667 7.03277 18.4894 6.95559 18.5073 6.87598C18.1043 7.30654 17.5536 7.59818 16.9353 7.66804C16.8403 7.67942 16.7436 7.68512 16.6469 7.68512C16.6161 7.68512 16.586 7.6843 16.5568 7.68268C16.348 7.46334 16.0986 7.28136 15.8224 7.14813C15.5145 6.99784 15.1701 6.90929 14.8069 6.89791C14.7769 6.89629 14.7476 6.89547 14.7167 6.89547C14.4088 6.89547 14.1132 6.94991 13.8402 7.05065C13.7703 7.07583 13.7021 7.10427 13.6355 7.13677C12.7703 7.54214 12.1716 8.42193 12.1716 9.44065C12.1716 9.64943 12.1968 9.85334 12.2447 10.0475C11.9799 10.0369 11.7175 10.0118 11.4599 9.97276C11.3771 9.95976 11.295 9.94514 11.213 9.9297C10.5566 9.80785 9.93023 9.59825 9.34857 9.31229C8.82783 9.05802 8.34285 8.74363 7.90092 8.37806C7.52966 8.07179 7.19009 7.73061 6.88626 7.35692C6.87327 7.34148 6.86026 7.32441 6.84726 7.30898C6.82939 7.33579 6.81314 7.36341 6.79852 7.39184C6.58649 7.7631 6.46626 8.19203 6.46626 8.65021C6.46626 8.66402 6.46626 8.67946 6.46707 8.69327C6.47195 9.03609 6.54506 9.36266 6.67504 9.65999C6.73028 9.79159 6.79771 9.9159 6.87489 10.0345C7.10235 10.3846 7.41268 10.6763 7.77988 10.8777C7.79694 10.8883 7.81317 10.8972 7.83105 10.9054C7.80505 10.9102 7.77743 10.9151 7.75062 10.9175C7.67507 10.9273 7.5979 10.9322 7.51991 10.9322C7.12916 10.9322 6.76603 10.8103 6.4687 10.6024C6.46708 10.6243 6.46707 10.6462 6.46707 10.669C6.46707 11.396 6.77172 12.0516 7.25995 12.5139C7.64015 12.8762 8.13163 13.1207 8.67754 13.1914C8.48095 13.2637 8.26892 13.3019 8.04714 13.3019C7.80749 13.3019 7.5784 13.2564 7.36881 13.1727C7.68157 14.189 8.61337 14.9339 9.7247 14.9681C9.04636 15.6732 8.09264 16.1111 7.03818 16.1111C6.38259 16.1111 5.76599 15.9413 5.23145 15.6448C6.51581 16.7561 8.19012 17.4271 10.022 17.4271C14.0701 17.4271 17.3513 14.1459 17.3513 10.0979C17.3513 9.87528 17.3415 9.6543 17.3212 9.43659C17.9906 9.17256 18.5219 8.63152 18.7729 7.954H18.7705Z" fill="white"/>
</svg>
