<svg width="89" height="85" viewBox="0 0 89 85" fill="none" xmlns="http://www.w3.org/2000/svg">
<path d="M37.9496 61.9007L20.9191 68.9837V0.305664C30.3196 0.305664 37.9496 7.97734 37.9496 17.4293V61.9007Z" stroke="#00A197" stroke-width="0.581262" stroke-miterlimit="10"/>
<path d="M49.7613 46.9225L48.6295 41.6918L53.5765 40.2602L52.4264 34.9194L57.4464 33.4695L56.3329 28.6977L61.2799 27.2661L60.1299 21.9436L65.1681 20.4754L63.945 15.6118L65.9896 12.0696L54.6352 5.2605L38.0966 33.1388M36.9283 61.0178L41.9666 59.5679L40.8531 54.796L45.8 53.3645L44.65 48.042L49.6883 46.5738" stroke="#00A197" stroke-width="0.581262" stroke-miterlimit="10"/>
<path d="M60.0563 58.2908L67.9611 53.622L66.2999 50.7956L61.5537 53.6037L57.9758 47.492L65.9896 42.7385C67.1396 42.0595 68.6182 42.4449 69.2936 43.6011L73.3096 50.4653L74.9343 49.5109C83.7512 42.6284 85.7775 34.8283 80.9948 26.0737L49.3022 44.7853" stroke="#00A197" stroke-width="0.581262" stroke-miterlimit="10"/>
<path fill-rule="evenodd" clip-rule="evenodd" d="M0.794312 71.2525C0.794312 64.0475 6.64294 58.1992 13.8483 58.1992H74.773C81.9784 58.1992 87.827 64.0475 87.827 71.2525C87.827 78.4574 81.9784 84.3057 74.773 84.3057H13.8483C6.64294 84.3057 0.794312 78.4758 0.794312 71.2525ZM44.3423 68.9747L40.468 63.465H36.7273V66.4579H39.3324L42.7392 71.2874L39.3324 76.0489H36.7273V79.0418H40.468L44.3423 73.5321L45.9455 71.2874L44.3423 68.9747ZM46.0151 66.4561L48.1527 63.4631H51.8934L51.8266 66.4561H49.4219L46.5495 70.4693L44.9464 68.1566L46.0151 66.4561Z" fill="#00A197"/>
<path d="M40.468 63.465L40.7058 63.2978L40.6189 63.1743H40.468V63.465ZM44.3423 68.9747L44.5812 68.8091L44.5801 68.8075L44.3423 68.9747ZM36.7273 63.465V63.1743H36.4367V63.465H36.7273ZM36.7273 66.4579H36.4367V66.7485H36.7273V66.4579ZM39.3324 66.4579L39.5699 66.2904L39.4831 66.1673H39.3324V66.4579ZM42.7392 71.2874L42.9755 71.4565L43.0957 71.2886L42.9767 71.1199L42.7392 71.2874ZM39.3324 76.0489V76.3395H39.4819L39.5688 76.218L39.3324 76.0489ZM36.7273 76.0489V75.7582H36.4367V76.0489H36.7273ZM36.7273 79.0418H36.4367V79.3324H36.7273V79.0418ZM40.468 79.0418V79.3324H40.6189L40.7058 79.209L40.468 79.0418ZM44.3423 73.5321L44.1058 73.3632L44.1046 73.3649L44.3423 73.5321ZM45.9455 71.2874L46.182 71.4563L46.3009 71.2899L46.1844 71.1218L45.9455 71.2874ZM48.1527 63.4631V63.1725H48.0031L47.9162 63.2942L48.1527 63.4631ZM46.0151 66.4561L45.7786 66.2872L45.7736 66.2941L45.7691 66.3014L46.0151 66.4561ZM51.8934 63.4631L52.184 63.4696L52.1906 63.1725H51.8934V63.4631ZM51.8266 66.4561V66.7467H52.1108L52.1172 66.4625L51.8266 66.4561ZM49.4219 66.4561V66.1654H49.2725L49.1855 66.2869L49.4219 66.4561ZM46.5495 70.4693L46.3107 70.6349L46.5457 70.974L46.7859 70.6385L46.5495 70.4693ZM44.9464 68.1566L44.7003 68.0019L44.5982 68.1644L44.7075 68.3222L44.9464 68.1566ZM13.8483 57.9086C6.48244 57.9086 0.503681 63.887 0.503681 71.2525H1.08494C1.08494 64.208 6.80343 58.4898 13.8483 58.4898V57.9086ZM74.773 57.9086H13.8483V58.4898H74.773V57.9086ZM88.1177 71.2525C88.1177 63.887 82.1389 57.9086 74.773 57.9086V58.4898C81.8179 58.4898 87.5364 64.208 87.5364 71.2525H88.1177ZM74.773 84.5964C82.1389 84.5964 88.1177 78.618 88.1177 71.2525H87.5364C87.5364 78.2969 81.8179 84.0151 74.773 84.0151V84.5964ZM13.8483 84.5964H74.773V84.0151H13.8483V84.5964ZM0.503681 71.2525C0.503681 78.6366 6.48271 84.5964 13.8483 84.5964V84.0151C6.80317 84.0151 1.08494 78.315 1.08494 71.2525H0.503681ZM40.2303 63.6321L44.1046 69.1419L44.5801 68.8075L40.7058 63.2978L40.2303 63.6321ZM36.7273 63.7556H40.468V63.1743H36.7273V63.7556ZM37.0179 66.4579V63.465H36.4367V66.4579H37.0179ZM39.3324 66.1673H36.7273V66.7485H39.3324V66.1673ZM42.9767 71.1199L39.5699 66.2904L39.095 66.6254L42.5017 71.4549L42.9767 71.1199ZM39.5688 76.218L42.9755 71.4565L42.5028 71.1183L39.0961 75.8798L39.5688 76.218ZM36.7273 76.3395H39.3324V75.7582H36.7273V76.3395ZM37.0179 79.0418V76.0489H36.4367V79.0418H37.0179ZM40.468 78.7512H36.7273V79.3324H40.468V78.7512ZM44.1046 73.3649L40.2303 78.8746L40.7058 79.209L44.5801 73.6993L44.1046 73.3649ZM45.709 71.1185L44.1058 73.3632L44.5788 73.701L46.182 71.4563L45.709 71.1185ZM44.1035 69.1403L45.7067 71.453L46.1844 71.1218L44.5812 68.8091L44.1035 69.1403ZM47.9162 63.2942L45.7786 66.2872L46.2516 66.625L48.3892 63.632L47.9162 63.2942ZM51.8934 63.1725H48.1527V63.7538H51.8934V63.1725ZM52.1172 66.4625L52.184 63.4696L51.6029 63.4566L51.5361 66.4496L52.1172 66.4625ZM49.4219 66.7467H51.8266V66.1654H49.4219V66.7467ZM46.7859 70.6385L49.6582 66.6252L49.1855 66.2869L46.3132 70.3002L46.7859 70.6385ZM44.7075 68.3222L46.3107 70.6349L46.7884 70.3037L45.1852 67.991L44.7075 68.3222ZM45.7691 66.3014L44.7003 68.0019L45.1924 68.3112L46.2612 66.6107L45.7691 66.3014Z" fill="#00A197"/>
</svg>
