<svg width="56" height="59" viewBox="0 0 56 59" fill="none" xmlns="http://www.w3.org/2000/svg">
<path fill-rule="evenodd" clip-rule="evenodd" d="M10.3924 19.6092C9.87747 19.6092 9.4334 19.9709 9.32916 20.4751L2.24846 54.7268C2.10958 55.3986 2.62084 56.0292 3.30684 56.0322L51.7704 56.2472C52.4475 56.2502 52.9621 55.6394 52.8443 54.9725L46.753 20.506C46.6614 19.9873 46.2106 19.6092 45.6839 19.6092L10.3924 19.6092ZM7.20277 20.0355C7.51548 18.5229 8.8477 17.4379 10.3924 17.4379L45.6839 17.4379C47.264 17.4379 48.6162 18.572 48.8912 20.1281L54.9825 54.5947C55.336 56.5951 53.7921 58.4275 51.7607 58.4185L3.29721 58.2035C1.2392 58.1944 -0.294573 56.3026 0.122065 54.2872L7.20277 20.0355L8.26597 20.2553L7.20277 20.0355Z" fill="#00A197"/>
<circle cx="27.5069" cy="11.2396" r="8.75191" stroke="#00A197" stroke-width="3"/>
<path fill-rule="evenodd" clip-rule="evenodd" d="M8.26596 20.2553L1.18526 54.507C0.9075 55.8506 1.93002 57.1118 3.30202 57.1179L51.7655 57.3328C53.1198 57.3388 54.1491 56.1172 53.9134 54.7836L47.8221 20.317C47.6388 19.2797 46.7373 18.5236 45.6839 18.5236L10.3924 18.5236C9.36258 18.5236 8.47444 19.2469 8.26596 20.2553ZM38.7243 44.7506V38.3892H33.4126V40.7323H35.6285V43.5738C35.5366 43.6232 35.42 43.6939 35.2786 43.7858C35.1443 43.8706 34.9641 43.9519 34.7379 44.0297C34.5117 44.1074 34.2113 44.1463 33.8367 44.1463C33.3702 44.1463 32.9638 44.0756 32.6174 43.9342C32.2781 43.7858 31.9954 43.549 31.7692 43.2239C31.5501 42.8987 31.384 42.4782 31.2709 41.9622C31.1578 41.4462 31.1013 40.8242 31.1013 40.0962V37.4456C31.1013 36.7105 31.1508 36.0885 31.2497 35.5796C31.3487 35.0707 31.5006 34.6537 31.7056 34.3285C31.9106 34.0034 32.165 33.7701 32.469 33.6288C32.7729 33.4803 33.1299 33.4061 33.5398 33.4061C34.0134 33.4061 34.3986 33.4874 34.6955 33.65C34.9923 33.8055 35.222 34.067 35.3846 34.4346C35.5543 34.8021 35.6638 35.311 35.7133 35.9613H38.7137C38.636 34.8516 38.4027 33.915 38.014 33.1517C37.6323 32.3883 37.0668 31.8122 36.3176 31.4235C35.5755 31.0347 34.6248 30.8404 33.4656 30.8404C32.6245 30.8404 31.8682 30.9747 31.1967 31.2433C30.5323 31.5119 29.9598 31.9218 29.4791 32.4731C28.9985 33.0244 28.6309 33.7171 28.3765 34.5512C28.1291 35.3782 28.0054 36.35 28.0054 37.4668V40.0962C28.0054 41.2271 28.1362 42.2061 28.3977 43.033C28.6592 43.8529 29.0374 44.5386 29.5321 45.0899C30.034 45.6341 30.6312 46.0406 31.3239 46.3092C32.0237 46.5777 32.8012 46.712 33.6564 46.712C34.6248 46.712 35.4447 46.599 36.1162 46.3728C36.7947 46.1395 37.3425 45.8709 37.7595 45.567C38.1836 45.256 38.5052 44.9839 38.7243 44.7506ZM19.6614 37.776V31.063H16.5549V46.5H19.6614V42.0435L20.8947 40.5072L23.7433 46.5H27.4011L22.8926 37.8554L27.3269 31.063H23.5524L20.6474 36.1309L19.6614 37.776Z" fill="#00A197"/>
</svg>
